<?xml version="1.0" encoding="UTF-8"?>
<svg id="Layer_1" xmlns="http://www.w3.org/2000/svg" xmlns:xlink="http://www.w3.org/1999/xlink" version="1.1" viewBox="0 0 245.58 246.26">
  <!-- Generator: Adobe Illustrator 30.2.1, SVG Export Plug-In . SVG Version: 2.1.1 Build 1)  -->
  <defs>
    <style>
      .st0 {
        fill: url(#linear-gradient);
      }

      .st1 {
        fill: #fff;
      }
    </style>
    <linearGradient id="linear-gradient" x1="38.38" y1="122.45" x2="233.29" y2="122.45" gradientUnits="userSpaceOnUse">
      <stop offset=".18" stop-color="#227d89"/>
      <stop offset=".76" stop-color="#054249"/>
    </linearGradient>
  </defs>
  <rect class="st0" x="3.4" y="2.72" width="239.46" height="239.46" rx="52.93" ry="52.93"/>
  <g>
    <g>
      <path class="st1" d="M40.53,120.09c1.91,0,3.41-1.5,3.41-3.41v-26.54c1.98-4.05,6.29-6.64,11.1-6.64,6.73,0,10.5,2.88,11.19,8.51.16,1.79,1.59,3.1,3.4,3.1,1.96,0,3.49-1.46,3.49-3.33,0-.62-.1-1.13-.11-1.22-.82-4.17-4.18-13.88-17.57-13.88-4.43,0-8.39,1.27-11.5,3.65-.04-1.87-1.53-3.32-3.41-3.32s-3.41,1.5-3.41,3.41v36.27c0,1.91,1.5,3.41,3.41,3.41"/>
      <path class="st1" d="M194.6,120.66c7.14,0,13.21-3.02,17.58-8.75.21-.27.83-1.1.83-2.24,0-1.84-1.49-3.33-3.33-3.33-1.14,0-2.15.52-2.72,1.4-3.03,4.15-7.19,6.26-12.36,6.26-7.24,0-12.87-4.44-14.54-11.23h31.15c2.48,0,3.73-1.39,3.73-4.14,0-12.11-9.49-21.95-21.15-21.95s-21.15,9.85-21.15,21.95c0,12.77,9.23,22.03,21.95,22.03M193.8,83.34c6.96,0,12.98,5.58,14.14,12.76h-28.2c1.16-7.18,7.14-12.76,14.06-12.76"/>
      <path class="st1" d="M109.27,80.41v8.44c2.31,2.68,3.71,6.17,3.71,9.98,0,3.16-.96,6.09-2.59,8.53,1.04,2.24,2.84,3.53,5.58,4.06,2.47-3.58,3.92-7.91,3.92-12.59,0-8.04-4.28-15.06-10.67-18.97.02.18.05.36.05.55"/>
      <path class="st1" d="M101.08,113.75c-1.1.25-2.25.4-3.43.4-8.47,0-15.33-6.86-15.33-15.33s6.86-15.33,15.33-15.33c.07,0,.14,0,.21.01v-3.1c0-1.45.53-2.74,1.39-3.73-.53-.04-1.06-.08-1.6-.08-12.28,0-22.23,9.96-22.23,22.23s9.95,22.23,22.23,22.23c3.07,0,6-.62,8.66-1.75-2.1-1.46-3.87-3.33-5.22-5.56"/>
    </g>
    <path class="st1" d="M136.21,76.99c-1.91,0-3.41,1.5-3.41,3.41v26.58c-1.21,2.21-3.21,4-5.67,5.22.1.43.17.88.17,1.34,0,3.2-2.6,5.8-5.8,5.8-3.16,0-5.72-2.54-5.78-5.68-5.99-1.08-8.75-5.15-8.75-12.86v-20.39c0-1.91-1.5-3.41-3.41-3.41s-3.41,1.5-3.41,3.41v20.72c0,12.05,7.18,19.53,18.73,19.53,5.47,0,10.27-1.46,13.92-4.18v.21c0,1.91,1.5,3.41,3.41,3.41s3.41-1.5,3.41-3.41v-36.27c0-1.91-1.5-3.41-3.41-3.41Z"/>
    <path class="st1" d="M121.5,118.81c2.9,0,5.27-2.36,5.27-5.27s-2.36-5.27-5.27-5.27-5.27,2.36-5.27,5.27,2.36,5.27,5.27,5.27"/>
    <g>
      <g>
        <path class="st1" d="M171.9,111.74c-.46,0-.88.11-1.26.26v7.24c.94-.36,1.83-.74,2.66-1.14,1.15-.5,1.93-1.71,1.93-3.03,0-1.84-1.49-3.33-3.33-3.33Z"/>
        <path class="st1" d="M161.69,113.89c-4.7-.5-7.02-3.79-7.02-10.11v-19.64h16.82c1.84,0,3.33-1.49,3.33-3.33s-1.49-3.33-3.33-3.33h-16.82v-8.28c0-1.91-1.5-3.41-3.41-3.41s-3.41,1.5-3.41,3.41v8.28h-2.31c-1.84,0-3.33,1.49-3.33,3.33s1.49,3.33,3.33,3.33h2.31v19.64c0,10.38,4.93,16.25,13.84,16.77v-6.66Z"/>
      </g>
      <g>
        <path class="st1" d="M68.99,122.31c-1.91,0-3.41,1.5-3.41,3.41v.22c-3.39-2.57-7.77-3.95-12.71-3.95-11.68,0-21.55,10.05-21.55,21.95s9.67,22.03,21.55,22.03c4.84,0,9.14-1.33,12.5-3.8-1.03,6.24-5.83,10.27-12.58,10.27-3.25,0-5.85-1.21-7.43-2.21-.51-.34-1.17-.53-1.84-.53-1.84,0-3.33,1.49-3.33,3.33,0,1.15.54,2.17,1.53,2.83,1.94,1.21,5.95,3.24,11.07,3.24,11.55,0,19.61-8.03,19.61-19.53v-33.86c0-1.91-1.5-3.41-3.41-3.41M65.57,152.39c-2.26,4.21-7.2,6.92-12.71,6.92-7.94,0-14.64-7.04-14.64-15.37s6.71-15.29,14.64-15.29c5.52,0,10.47,2.73,12.71,6.99v16.75Z"/>
        <path class="st1" d="M94.39,165.97c5.47,0,10.27-1.46,13.92-4.18v.21c0,1.91,1.5,3.41,3.41,3.41s3.41-1.5,3.41-3.41v-36.27c0-1.91-1.5-3.41-3.41-3.41s-3.41,1.5-3.41,3.41v26.58c-2.33,4.27-7.59,7.01-13.52,7.01-8.51,0-12.31-4.07-12.31-13.19v-20.39c0-1.91-1.5-3.41-3.41-3.41s-3.41,1.5-3.41,3.41v20.72c0,12.05,7.18,19.53,18.73,19.53"/>
        <path class="st1" d="M124.91,125.72c0-1.91-1.5-3.41-3.41-3.41s-3.41,1.5-3.41,3.41v25.23c0,7.23,3.3,12.49,8.75,14.04.61.21,1.69.41,2.72.41,2.09,0,3.33-1.69,3.33-3.33,0-1.81-1.45-3.29-3.25-3.33-4.27-.38-4.73-5.57-4.73-7.79v-25.23Z"/>
        <path class="st1" d="M149.93,165.97c4.94,0,9.32-1.38,12.71-3.95.01,1.9,1.51,3.39,3.41,3.39s3.41-1.5,3.41-3.41v-50.14c0-1.91-1.5-3.41-3.41-3.41s-3.41,1.5-3.41,3.41v14.08c-3.39-2.57-7.77-3.95-12.71-3.95-11.68,0-21.55,10.05-21.55,21.95s9.67,22.03,21.55,22.03M149.93,128.65c5.52,0,10.47,2.73,12.71,6.99v16.75c-2.26,4.21-7.2,6.92-12.71,6.92-7.94,0-14.64-7.04-14.64-15.37s6.71-15.29,14.64-15.29"/>
        <path class="st1" d="M193.63,165.97c7.14,0,13.21-3.02,17.58-8.75.21-.27.83-1.1.83-2.24,0-1.84-1.49-3.33-3.33-3.33-1.14,0-2.15.52-2.72,1.4-3.03,4.15-7.19,6.26-12.36,6.26-7.24,0-12.87-4.44-14.54-11.23h31.15c2.48,0,3.73-1.39,3.73-4.14,0-12.11-9.49-21.95-21.15-21.95s-21.15,9.85-21.15,21.95c0,12.77,9.23,22.03,21.95,22.03M192.82,128.65c6.96,0,12.98,5.58,14.14,12.76h-28.2c1.16-7.18,7.14-12.76,14.06-12.76"/>
      </g>
      <path class="st1" d="M213.91,71.35c0,2.94-2.31,5.24-5.31,5.24s-5.34-2.31-5.34-5.24,2.37-5.18,5.34-5.18,5.31,2.31,5.31,5.18M204.6,71.35c0,2.31,1.71,4.14,4.04,4.14s3.95-1.83,3.95-4.1-1.67-4.17-3.98-4.17-4.01,1.86-4.01,4.14M207.79,74.06h-1.2v-5.18c.47-.09,1.14-.16,1.99-.16.98,0,1.42.16,1.8.38.28.22.51.63.51,1.14,0,.57-.44,1.01-1.07,1.2v.06c.51.19.79.57.95,1.26.16.79.25,1.1.38,1.29h-1.3c-.16-.19-.25-.66-.41-1.26-.09-.57-.41-.82-1.07-.82h-.57v2.09ZM207.82,71.13h.57c.66,0,1.2-.22,1.2-.76,0-.47-.35-.79-1.11-.79-.32,0-.54.03-.66.06v1.49Z"/>
    </g>
  </g>
</svg>