<svg width="472" height="139" viewBox="0 0 472 139" fill="none" xmlns="http://www.w3.org/2000/svg">
<path d="M4.39 80.5276C6.85 80.5276 8.78 78.4105 8.78 75.712V38.2947C11.32 32.5906 16.87 28.9267 23.04 28.9267C31.69 28.9267 36.53 32.9855 37.41 40.9274C37.62 43.4504 39.46 45.2933 41.79 45.2933C44.31 45.2933 46.28 43.2311 46.28 40.5984C46.28 39.7208 46.16 39.0078 46.13 38.8761C45.07 32.9964 40.76 19.3064 23.55 19.3064C17.86 19.3064 12.77 21.1054 8.77 24.4511C8.71 21.8184 6.81 19.7671 4.39 19.7671C1.97 19.7671 0 21.8842 0 24.5828V75.7229C0 78.4215 1.93 80.5386 4.39 80.5386V80.5276Z" fill="#044656"/>
<path d="M139.34 29.8482H142.31V57.5354C142.31 72.8709 149.2 81.3284 161.72 81.3284C167.48 81.3284 171.56 79.5733 175.02 77.7194C176.5 77.0174 177.5 75.3061 177.5 73.4413C177.5 70.8525 175.58 68.7463 173.22 68.7463C172.35 68.7463 171.51 69.0096 170.96 69.4155C168.23 71.1706 165.46 71.9275 161.72 71.9275C154.56 71.9275 151.08 67.2215 151.08 57.5354V29.8482H172.7C175.06 29.8482 176.98 27.742 176.98 25.1532C176.98 22.5644 175.06 20.4582 172.7 20.4582H151.08V8.78659C151.08 6.08808 149.15 3.97095 146.69 3.97095C144.23 3.97095 142.3 6.08808 142.3 8.78659V20.4582H139.33C136.97 20.4582 135.05 22.5644 135.05 25.1532C135.05 27.742 136.97 29.8482 139.33 29.8482H139.34Z" fill="#044656"/>
<path d="M280.44 19.7671C277.98 19.7671 276.05 21.8843 276.05 24.5828V24.8899C271.69 21.27 266.06 19.3174 259.72 19.3174C244.71 19.3174 232.03 33.4901 232.03 50.2626C232.03 67.035 244.45 81.3284 259.72 81.3284C265.94 81.3284 271.47 79.4636 275.79 75.9753C274.46 84.7729 268.3 90.4551 259.62 90.4551C255.45 90.4551 252.1 88.7439 250.07 87.3398C249.41 86.8571 248.57 86.5938 247.7 86.5938C245.34 86.5938 243.42 88.7 243.42 91.2888C243.42 92.9123 244.12 94.3493 245.39 95.2817C247.88 96.993 253.04 99.856 259.61 99.856C274.45 99.856 284.82 88.5354 284.82 72.3224V24.5937C284.82 21.8952 282.89 19.7781 280.43 19.7781L280.44 19.7671ZM276.06 62.1755C273.16 68.121 266.81 71.9275 259.73 71.9275C249.53 71.9275 240.91 62.011 240.91 50.2626C240.91 38.5141 249.53 28.7073 259.73 28.7073C266.83 28.7073 273.18 32.5577 276.06 38.569V62.1755Z" fill="#044656"/>
<path d="M313.09 81.3285C320.12 81.3285 326.29 79.2662 330.98 75.4378V75.723C330.98 78.4216 332.91 80.5387 335.37 80.5387C337.83 80.5387 339.76 78.4216 339.76 75.723V24.5829C339.76 21.8843 337.83 19.7672 335.37 19.7672C332.91 19.7672 330.98 21.8843 330.98 24.5829V62.0549C327.98 68.0772 321.23 71.9276 313.61 71.9276C302.67 71.9276 297.79 66.1905 297.79 53.3342V24.5829C297.79 21.8843 295.86 19.7672 293.4 19.7672C290.94 19.7672 289.01 21.8843 289.01 24.5829V53.7839C289.01 70.7648 298.23 81.3175 313.08 81.3175L313.09 81.3285Z" fill="#044656"/>
<path d="M105.08 81.3285C112.11 81.3285 118.28 79.2662 122.97 75.4378V75.723C122.97 78.4216 124.9 80.5387 127.36 80.5387C129.82 80.5387 131.75 78.4216 131.75 75.723V24.5829C131.75 21.8843 129.82 19.7672 127.36 19.7672C124.9 19.7672 122.97 21.8843 122.97 24.5829V62.0549C119.97 68.0772 113.22 71.9276 105.6 71.9276C94.66 71.9276 89.78 66.1905 89.78 53.3342V24.5829C89.78 21.8843 87.85 19.7672 85.39 19.7672C82.93 19.7672 81 21.8843 81 24.5829V53.7839C81 70.7648 90.22 81.3175 105.07 81.3175L105.08 81.3285Z" fill="#044656"/>
<path d="M352.32 24.5829C352.32 21.8843 350.39 19.7672 347.93 19.7672C345.47 19.7672 343.54 21.8843 343.54 24.5829V60.1462C343.54 70.337 347.78 77.7524 354.79 79.9463C355.58 80.2315 356.97 80.5277 358.29 80.5277C360.97 80.5277 362.57 78.1363 362.57 75.8327C362.57 73.2768 360.71 71.2036 358.4 71.1378C352.91 70.6112 352.32 63.2835 352.32 60.1462V24.5829Z" fill="#044656"/>
<path d="M347.93 14.8528C351.669 14.8528 354.7 11.5279 354.7 7.42639C354.7 3.3249 351.669 0 347.93 0C344.191 0 341.16 3.3249 341.16 7.42639C341.16 11.5279 344.191 14.8528 347.93 14.8528Z" fill="#044656"/>
<path d="M384.47 81.3284C390.82 81.3284 396.45 79.3868 400.8 75.7559C400.82 78.4325 402.74 80.5276 405.19 80.5276C407.64 80.5276 409.58 78.4105 409.58 75.712V5.03501C409.58 2.33649 407.65 0.21936 405.19 0.21936C402.73 0.21936 400.8 2.33649 400.8 5.03501V24.8899C396.44 21.27 390.81 19.3174 384.47 19.3174C369.46 19.3174 356.78 33.4901 356.78 50.2626C356.78 67.0351 369.2 81.3284 384.47 81.3284ZM384.47 28.7074C391.57 28.7074 397.92 32.5577 400.8 38.569V62.1756C397.9 68.1211 391.55 71.9275 384.47 71.9275C374.27 71.9275 365.65 62.011 365.65 50.2626C365.65 38.5142 374.27 28.7074 384.47 28.7074Z" fill="#044656"/>
<path d="M440.62 81.3284C449.8 81.3284 457.6 77.0723 463.21 68.9986C463.47 68.6147 464.27 67.441 464.27 65.8394C464.27 63.2506 462.35 61.1444 459.99 61.1444C458.52 61.1444 457.23 61.8794 456.5 63.1189C452.6 68.9767 447.26 71.9385 440.62 71.9385C431.32 71.9385 424.08 65.6858 421.93 56.1094H461.96C465.15 56.1094 466.76 54.1458 466.76 50.2736C466.76 33.2049 454.57 19.3284 439.58 19.3284C424.59 19.3284 412.4 33.2159 412.4 50.2736C412.4 68.2746 424.26 81.3394 440.61 81.3394L440.62 81.3284ZM439.59 28.7074C448.54 28.7074 456.27 36.5725 457.76 46.6975H421.52C423 36.5725 430.69 28.7074 439.59 28.7074Z" fill="#044656"/>
<path d="M202.4 81.3284C211.58 81.3284 219.38 77.0723 224.99 68.9986C225.25 68.6147 226.05 67.441 226.05 65.8394C226.05 63.2506 224.13 61.1444 221.77 61.1444C220.3 61.1444 219.01 61.8794 218.28 63.1189C214.38 68.9767 209.04 71.9385 202.4 71.9385C193.1 71.9385 185.86 65.6858 183.71 56.1094H223.74C226.93 56.1094 228.54 54.1458 228.54 50.2736C228.54 33.2049 216.35 19.3284 201.36 19.3284C186.37 19.3284 174.18 33.2159 174.18 50.2736C174.18 68.2746 186.04 81.3394 202.39 81.3394L202.4 81.3284ZM201.36 28.7074C210.31 28.7074 218.04 36.5725 219.53 46.6975H183.29C184.77 36.5725 192.46 28.7074 201.36 28.7074Z" fill="#044656"/>
<path d="M471.16 12.1982C471.16 14.9077 469.22 17.0248 466.7 17.0248C464.18 17.0248 462.22 14.8967 462.22 12.1982C462.22 9.49965 464.21 7.42639 466.7 7.42639C469.19 7.42639 471.16 9.5545 471.16 12.1982ZM463.34 12.1982C463.34 14.3263 464.77 16.0046 466.74 16.0046C468.71 16.0046 470.06 14.3153 470.06 12.2201C470.06 10.1249 468.65 8.38076 466.72 8.38076C464.79 8.38076 463.35 10.103 463.35 12.1872L463.34 12.1982ZM466.02 14.6992H465.01V9.92747C465.41 9.83971 465.97 9.78486 466.68 9.78486C467.5 9.78486 467.87 9.92746 468.19 10.1359C468.43 10.3443 468.61 10.7173 468.61 11.189C468.61 11.7155 468.24 12.1214 467.71 12.2969V12.3517C468.14 12.5273 468.37 12.8783 468.51 13.5145C468.64 14.2385 468.72 14.5347 468.83 14.7102H467.74C467.61 14.5347 467.53 14.0959 467.39 13.5474C467.31 13.0209 467.05 12.7905 466.49 12.7905H466.01V14.7102L466.02 14.6992ZM466.04 11.9897H466.52C467.08 11.9897 467.53 11.7813 467.53 11.2877C467.53 10.8489 467.24 10.5637 466.6 10.5637C466.34 10.5637 466.15 10.5966 466.04 10.6185V11.9897Z" fill="#044656"/>
<path d="M92.73 24.5828V36.4738C95.7 40.2583 97.5 45.1727 97.5 50.5478C97.5 55.0014 96.27 59.137 94.17 62.5814C95.5 65.7407 97.82 67.5616 101.35 68.2966C104.52 63.2506 106.38 57.1405 106.38 50.5478C106.38 39.2162 100.88 29.3217 92.67 23.8149C92.69 24.0672 92.74 24.3195 92.74 24.5828H92.73Z" fill="#044656"/>
<path d="M82.21 71.5875C80.79 71.9495 79.32 72.1469 77.8 72.1469C66.92 72.1469 58.1 62.4718 58.1 50.5369C58.1 38.602 66.92 28.9268 77.8 28.9268C77.89 28.9268 77.98 28.9378 78.06 28.9378V24.5719C78.06 22.5315 78.74 20.7106 79.85 19.3065C79.17 19.2516 78.49 19.1968 77.8 19.1968C62.02 19.1968 49.23 33.2269 49.23 50.5369C49.23 67.8469 62.02 81.877 77.8 81.877C81.75 81.877 85.51 80.9994 88.93 79.4088C86.23 77.3465 83.96 74.7248 82.22 71.5765L82.21 71.5875Z" fill="#044656"/>
<path d="M123.01 123.408H118.02V122.048H129.36V123.408H124.37V138.074H123.01V123.408Z" fill="#044656"/>
<path d="M136.56 122.048H140.4C140.59 122.048 140.85 122.048 141.18 122.07C141.51 122.08 141.87 122.135 142.25 122.201C142.64 122.278 143.03 122.399 143.43 122.563C143.83 122.728 144.19 122.969 144.5 123.287C144.82 123.605 145.08 124 145.28 124.483C145.49 124.966 145.59 125.558 145.59 126.249C145.59 127.017 145.47 127.653 145.23 128.147C144.99 128.64 144.69 129.046 144.32 129.353C143.95 129.66 143.55 129.891 143.11 130.044C142.67 130.198 142.25 130.297 141.85 130.363L146.1 138.052H144.55L140.45 130.45H137.91V138.052H136.55V122.037L136.56 122.048ZM137.92 129.112H140.81C141.53 129.112 142.11 129.013 142.55 128.816C143 128.618 143.34 128.377 143.59 128.092C143.84 127.807 144.01 127.499 144.1 127.159C144.19 126.819 144.24 126.523 144.24 126.26C144.24 125.997 144.19 125.69 144.1 125.349C144.01 125.02 143.84 124.713 143.59 124.417C143.34 124.132 143 123.89 142.55 123.693C142.1 123.496 141.52 123.397 140.81 123.397H137.92V129.101V129.112Z" fill="#044656"/>
<path d="M158.22 122.048H159.62L165.77 138.063H164.24L162.65 133.807H154.92L153.27 138.063H151.85L158.22 122.048ZM158.85 123.682L155.45 132.458H162.15L158.85 123.682Z" fill="#044656"/>
<path d="M169.72 122.048H171.18L175.88 136.1L180.63 122.048H182.07L176.52 138.063H175.16L169.71 122.048H169.72Z" fill="#044656"/>
<path d="M188.97 122.048H197.9V123.408H190.33V129.112H197.42V130.472H190.33V136.714H198.23V138.074H188.97V122.059V122.048Z" fill="#044656"/>
<path d="M206.15 122.048H207.51V136.714H214.32V138.074H206.15V122.059V122.048Z" fill="#044656"/>
<path d="M236.2 122.048H237.6L243.75 138.063H242.22L240.63 133.807H232.89L231.24 138.063H229.82L236.19 122.048H236.2ZM236.84 123.682L233.44 132.458H240.15L236.85 123.682H236.84Z" fill="#044656"/>
<path d="M250.81 122.048H252.56L261.45 136.078H261.49V122.048H262.85V138.063H261.1L252.21 124.033H252.17V138.063H250.81V122.048Z" fill="#044656"/>
<path d="M271.62 122.048H276.14C277.4 122.048 278.48 122.223 279.36 122.552C280.24 122.892 280.97 123.331 281.56 123.858C282.14 124.384 282.61 124.966 282.94 125.613C283.27 126.26 283.52 126.874 283.68 127.456C283.84 128.048 283.94 128.575 283.98 129.046C284.02 129.518 284.04 129.858 284.04 130.055C284.04 130.253 284.02 130.582 283.98 131.065C283.94 131.547 283.84 132.074 283.68 132.655C283.52 133.248 283.27 133.862 282.94 134.498C282.61 135.134 282.14 135.727 281.56 136.253C280.98 136.78 280.24 137.219 279.36 137.559C278.48 137.899 277.41 138.063 276.14 138.063H271.62V122.048ZM272.98 136.714H275.78C276.74 136.714 277.64 136.582 278.48 136.319C279.32 136.056 280.05 135.65 280.67 135.112C281.29 134.575 281.78 133.884 282.13 133.039C282.49 132.205 282.67 131.207 282.67 130.066C282.67 128.926 282.49 127.927 282.13 127.094C281.77 126.26 281.28 125.569 280.67 125.02C280.06 124.472 279.32 124.077 278.48 123.814C277.64 123.55 276.74 123.419 275.78 123.419H272.98V136.725V136.714Z" fill="#044656"/>
<path d="M305.59 131.174L300.23 122.059H301.86L306.27 129.661L310.79 122.059H312.32L306.96 131.174V138.074H305.6V131.174H305.59Z" fill="#044656"/>
<path d="M318.19 130.055C318.19 128.838 318.38 127.708 318.75 126.688C319.12 125.668 319.64 124.779 320.3 124.033C320.96 123.287 321.75 122.706 322.68 122.278C323.61 121.861 324.63 121.642 325.74 121.642C326.85 121.642 327.88 121.85 328.8 122.278C329.73 122.706 330.52 123.287 331.18 124.033C331.84 124.779 332.36 125.668 332.73 126.688C333.1 127.708 333.29 128.838 333.29 130.055C333.29 131.273 333.1 132.403 332.73 133.434C332.36 134.465 331.84 135.354 331.18 136.1C330.52 136.846 329.73 137.427 328.8 137.844C327.87 138.261 326.85 138.469 325.74 138.469C324.63 138.469 323.6 138.261 322.68 137.844C321.76 137.427 320.96 136.846 320.3 136.1C319.64 135.354 319.12 134.465 318.75 133.434C318.38 132.403 318.19 131.273 318.19 130.055ZM319.56 130.055C319.56 131.054 319.71 131.975 319.99 132.842C320.28 133.697 320.69 134.443 321.23 135.079C321.77 135.716 322.42 136.209 323.18 136.571C323.94 136.933 324.8 137.109 325.75 137.109C326.7 137.109 327.56 136.922 328.32 136.571C329.08 136.209 329.73 135.716 330.27 135.079C330.81 134.443 331.22 133.697 331.51 132.842C331.8 131.986 331.94 131.054 331.94 130.055C331.94 129.057 331.8 128.136 331.51 127.269C331.22 126.413 330.81 125.668 330.27 125.031C329.73 124.395 329.08 123.901 328.32 123.539C327.56 123.177 326.7 123.002 325.75 123.002C324.8 123.002 323.95 123.188 323.18 122.464C322.42 122.826 321.77 123.32 321.23 123.956C320.69 124.593 320.28 125.338 319.99 126.194C319.7 127.05 319.56 127.982 319.56 128.98V130.055Z" fill="#044656"/>
<path d="M351.67 131.942C351.67 132.798 351.58 133.621 351.4 134.41C351.22 135.2 350.92 135.891 350.5 136.495C350.08 137.098 349.53 137.581 348.85 137.943C348.17 138.305 347.33 138.48 346.34 138.48C345.35 138.48 344.51 138.294 343.83 137.943C343.15 137.591 342.6 137.098 342.18 136.495C341.76 135.891 341.46 135.2 341.28 134.41C341.1 133.621 341.01 132.809 341.01 131.942V122.059H342.37V131.558C342.37 132.129 342.42 132.743 342.52 133.39C342.62 134.037 342.8 134.641 343.09 135.2C343.37 135.76 343.77 136.22 344.29 136.582C344.81 136.944 345.49 137.12 346.34 137.12C347.19 137.12 347.88 136.933 348.39 136.582C348.91 136.22 349.31 135.76 349.59 135.2C349.87 134.641 350.06 134.037 350.16 133.39C350.26 132.743 350.3 132.129 350.3 131.558V122.059H351.66V131.942H351.67Z" fill="#044656"/>
</svg>
