<?xml version="1.0" encoding="UTF-8"?>
<svg id="Layer_1" xmlns="http://www.w3.org/2000/svg" version="1.1" viewBox="0 0 841.89 595.28">
  <!-- Generator: Adobe Illustrator 30.1.0, SVG Export Plug-In . SVG Version: 2.1.1 Build 136)  -->
  <defs>
    <style>
      .st0 {
        fill: #044656;
      }
    </style>
  </defs>
  <g>
    <g>
      <path class="st0" d="M189.75,307.93c2.46,0,4.39-1.93,4.39-4.39v-34.11c2.54-5.2,8.09-8.54,14.26-8.54,8.65,0,13.49,3.7,14.37,10.94.21,2.3,2.05,3.98,4.38,3.98,2.52,0,4.49-1.88,4.49-4.28,0-.8-.12-1.45-.15-1.57-1.06-5.36-5.37-17.84-22.58-17.84-5.69,0-10.78,1.64-14.78,4.69-.06-2.4-1.96-4.27-4.38-4.27s-4.39,1.93-4.39,4.39v46.62c0,2.46,1.93,4.39,4.39,4.39Z"/>
      <path class="st0" d="M324.7,261.73h2.97v25.24c0,13.98,6.89,21.69,19.41,21.69,5.76,0,9.84-1.6,13.3-3.29,1.48-.64,2.48-2.2,2.48-3.9,0-2.36-1.92-4.28-4.28-4.28-.87,0-1.71.24-2.26.61-2.73,1.6-5.5,2.29-9.24,2.29-7.16,0-10.64-4.29-10.64-13.12v-25.24h21.62c2.36,0,4.28-1.92,4.28-4.28s-1.92-4.28-4.28-4.28h-21.62v-10.64c0-2.46-1.93-4.39-4.39-4.39s-4.39,1.93-4.39,4.39v10.64h-2.97c-2.36,0-4.28,1.92-4.28,4.28s1.92,4.28,4.28,4.28Z"/>
      <path class="st0" d="M465.8,252.54c-2.46,0-4.39,1.93-4.39,4.39v.28c-4.36-3.3-9.99-5.08-16.33-5.08-15.01,0-27.69,12.92-27.69,28.21s12.42,28.32,27.69,28.32c6.22,0,11.75-1.7,16.07-4.88-1.33,8.02-7.49,13.2-16.17,13.2-4.17,0-7.52-1.56-9.55-2.84-.66-.44-1.5-.68-2.37-.68-2.36,0-4.28,1.92-4.28,4.28,0,1.48.7,2.79,1.97,3.64,2.49,1.56,7.65,4.17,14.22,4.17,14.84,0,25.21-10.32,25.21-25.1v-43.51c0-2.46-1.93-4.39-4.39-4.39ZM461.42,291.2c-2.9,5.42-9.25,8.89-16.33,8.89-10.2,0-18.82-9.04-18.82-19.75s8.62-19.65,18.82-19.65c7.1,0,13.45,3.51,16.33,8.99v21.52Z"/>
      <path class="st0" d="M498.45,308.66c7.03,0,13.2-1.88,17.89-5.37v.26c0,2.46,1.93,4.39,4.39,4.39s4.39-1.93,4.39-4.39v-46.62c0-2.46-1.93-4.39-4.39-4.39s-4.39,1.93-4.39,4.39v34.16c-3,5.49-9.75,9-17.37,9-10.94,0-15.82-5.23-15.82-16.95v-26.21c0-2.46-1.93-4.39-4.39-4.39s-4.39,1.93-4.39,4.39v26.62c0,15.48,9.22,25.1,24.07,25.1Z"/>
      <path class="st0" d="M290.44,308.66c7.03,0,13.2-1.88,17.89-5.37v.26c0,2.46,1.93,4.39,4.39,4.39s4.39-1.93,4.39-4.39v-46.62c0-2.46-1.93-4.39-4.39-4.39s-4.39,1.93-4.39,4.39v34.16c-3,5.49-9.75,9-17.37,9-10.94,0-15.82-5.23-15.82-16.95v-26.21c0-2.46-1.93-4.39-4.39-4.39s-4.39,1.93-4.39,4.39v26.62c0,15.48,9.22,25.1,24.07,25.1Z"/>
      <path class="st0" d="M537.68,256.93c0-2.46-1.93-4.39-4.39-4.39s-4.39,1.93-4.39,4.39v32.42c0,9.29,4.24,16.05,11.25,18.05.79.26,2.18.53,3.5.53,2.68,0,4.28-2.18,4.28-4.28,0-2.33-1.86-4.22-4.17-4.28-5.49-.48-6.08-7.16-6.08-10.02v-32.42Z"/>
      <circle class="st0" cx="533.29" cy="241.29" r="6.77"/>
      <path class="st0" d="M569.83,308.66c6.35,0,11.98-1.77,16.33-5.08.02,2.44,1.94,4.35,4.39,4.35s4.39-1.93,4.39-4.39v-64.43c0-2.46-1.93-4.39-4.39-4.39s-4.39,1.93-4.39,4.39v18.1c-4.36-3.3-9.99-5.08-16.33-5.08-15.01,0-27.69,12.92-27.69,28.21s12.42,28.32,27.69,28.32ZM569.83,260.69c7.1,0,13.45,3.51,16.33,8.99v21.52c-2.9,5.42-9.25,8.89-16.33,8.89-10.2,0-18.82-9.04-18.82-19.75s8.62-19.65,18.82-19.65Z"/>
      <path class="st0" d="M625.98,308.66c9.18,0,16.98-3.88,22.59-11.24.26-.35,1.06-1.42,1.06-2.88,0-2.36-1.92-4.28-4.28-4.28-1.47,0-2.76.67-3.49,1.8-3.9,5.34-9.24,8.04-15.88,8.04-9.3,0-16.54-5.7-18.69-14.43h40.03c3.19,0,4.8-1.79,4.8-5.32,0-15.56-12.19-28.21-27.18-28.21s-27.18,12.66-27.18,28.21c0,16.41,11.86,28.32,28.21,28.32ZM624.95,260.69c8.95,0,16.68,7.17,18.17,16.4h-36.24c1.48-9.23,9.17-16.4,18.07-16.4Z"/>
      <path class="st0" d="M387.76,308.66c9.18,0,16.98-3.88,22.59-11.24.26-.35,1.06-1.42,1.06-2.88,0-2.36-1.92-4.28-4.28-4.28-1.47,0-2.76.67-3.49,1.8-3.9,5.34-9.24,8.04-15.88,8.04-9.3,0-16.54-5.7-18.69-14.43h40.03c3.19,0,4.8-1.79,4.8-5.32,0-15.56-12.19-28.21-27.18-28.21s-27.18,12.66-27.18,28.21c0,16.41,11.86,28.32,28.21,28.32ZM386.72,260.69c8.95,0,16.68,7.17,18.17,16.4h-36.24c1.48-9.23,9.17-16.4,18.07-16.4Z"/>
      <path class="st0" d="M656.52,245.64c0,2.47-1.94,4.4-4.46,4.4s-4.48-1.94-4.48-4.4,1.99-4.35,4.48-4.35,4.46,1.94,4.46,4.35ZM648.7,245.64c0,1.94,1.43,3.47,3.4,3.47s3.32-1.54,3.32-3.45-1.41-3.5-3.34-3.5-3.37,1.57-3.37,3.47ZM651.38,247.92h-1.01v-4.35c.4-.08.96-.13,1.67-.13.82,0,1.19.13,1.51.32.24.19.42.53.42.96,0,.48-.37.85-.9,1.01v.05c.43.16.66.48.8,1.06.13.66.21.93.32,1.09h-1.09c-.13-.16-.21-.56-.35-1.06-.08-.48-.34-.69-.9-.69h-.48v1.75ZM651.4,245.45h.48c.56,0,1.01-.19,1.01-.64,0-.4-.29-.66-.93-.66-.26,0-.45.03-.56.05v1.25Z"/>
      <g>
        <path class="st0" d="M278.09,256.93v10.84c2.97,3.45,4.77,7.93,4.77,12.83,0,4.06-1.23,7.83-3.33,10.97,1.33,2.88,3.65,4.54,7.18,5.21,3.17-4.6,5.03-10.17,5.03-16.18,0-10.33-5.5-19.35-13.71-24.37.02.23.07.46.07.7Z"/>
        <path class="st0" d="M267.57,299.78c-1.42.33-2.89.51-4.41.51-10.88,0-19.7-8.82-19.7-19.7s8.82-19.7,19.7-19.7c.09,0,.18.01.26.01v-3.98c0-1.86.68-3.52,1.79-4.8-.68-.05-1.36-.1-2.05-.1-15.78,0-28.57,12.79-28.57,28.57s12.79,28.57,28.57,28.57c3.95,0,7.71-.8,11.13-2.25-2.7-1.88-4.97-4.27-6.71-7.14Z"/>
      </g>
    </g>
    <g>
      <path class="st0" d="M308.37,347.02h-4.99v-1.24h11.34v1.24h-4.99v13.37h-1.36v-13.37Z"/>
      <path class="st0" d="M321.92,345.78h3.84c.19,0,.45,0,.78.02.33.01.69.06,1.07.12.39.07.78.18,1.18.33.4.15.76.37,1.07.66.32.29.58.65.78,1.09.21.44.31.98.31,1.61,0,.7-.12,1.28-.36,1.73-.24.45-.54.82-.91,1.1s-.77.49-1.21.63c-.44.14-.86.23-1.26.29l4.25,7.01h-1.55l-4.1-6.93h-2.54v6.93h-1.36v-14.6ZM323.28,352.22h2.89c.72,0,1.3-.09,1.74-.27.45-.18.79-.4,1.04-.66.25-.26.42-.54.51-.85s.14-.58.14-.82-.05-.52-.14-.83c-.09-.3-.26-.58-.51-.85-.25-.26-.59-.48-1.04-.66-.45-.18-1.03-.27-1.74-.27h-2.89v5.2Z"/>
      <path class="st0" d="M343.58,345.78h1.4l6.15,14.6h-1.53l-1.59-3.88h-7.73l-1.65,3.88h-1.42l6.37-14.6ZM344.21,347.27l-3.4,8h6.7l-3.3-8Z"/>
      <path class="st0" d="M355.08,345.78h1.46l4.7,12.81,4.75-12.81h1.44l-5.55,14.6h-1.36l-5.45-14.6Z"/>
      <path class="st0" d="M374.33,345.78h8.93v1.24h-7.57v5.2h7.09v1.24h-7.09v5.69h7.9v1.24h-9.26v-14.6Z"/>
      <path class="st0" d="M391.51,345.78h1.36v13.37h6.81v1.24h-8.17v-14.6Z"/>
      <path class="st0" d="M421.56,345.78h1.4l6.15,14.6h-1.53l-1.59-3.88h-7.74l-1.65,3.88h-1.42l6.37-14.6ZM422.2,347.27l-3.4,8h6.71l-3.3-8Z"/>
      <path class="st0" d="M436.17,345.78h1.75l8.89,12.79h.04v-12.79h1.36v14.6h-1.75l-8.89-12.79h-.04v12.79h-1.36v-14.6Z"/>
      <path class="st0" d="M456.98,345.78h4.52c1.26,0,2.34.16,3.22.46.88.31,1.61.71,2.2,1.19.58.48,1.05,1.01,1.38,1.6s.58,1.15.74,1.68c.16.54.26,1.02.3,1.45s.06.74.06.92-.02.48-.06.92-.14.92-.3,1.45c-.16.54-.41,1.1-.74,1.68s-.8,1.12-1.38,1.6c-.58.48-1.32.88-2.2,1.19-.88.31-1.95.46-3.22.46h-4.52v-14.6ZM458.34,359.15h2.8c.96,0,1.86-.12,2.7-.36s1.57-.61,2.19-1.1,1.11-1.12,1.46-1.89c.36-.76.54-1.67.54-2.71s-.18-1.95-.54-2.71c-.36-.76-.85-1.39-1.46-1.89s-1.35-.86-2.19-1.1-1.74-.36-2.7-.36h-2.8v12.13Z"/>
      <path class="st0" d="M490.95,354.1l-5.36-8.31h1.63l4.41,6.93,4.52-6.93h1.53l-5.36,8.31v6.29h-1.36v-6.29Z"/>
      <path class="st0" d="M503.55,353.08c0-1.11.19-2.14.56-3.07s.89-1.74,1.55-2.42c.66-.68,1.45-1.21,2.38-1.6.93-.38,1.95-.58,3.06-.58s2.14.19,3.06.58c.93.39,1.72.92,2.38,1.6.66.68,1.18,1.49,1.55,2.42s.56,1.96.56,3.07-.19,2.14-.56,3.08c-.37.94-.89,1.75-1.55,2.43s-1.45,1.21-2.38,1.59-1.95.57-3.06.57-2.14-.19-3.06-.57-1.72-.91-2.38-1.59c-.66-.68-1.18-1.49-1.55-2.43-.37-.94-.56-1.97-.56-3.08ZM504.92,353.08c0,.91.15,1.75.43,2.54.29.78.7,1.46,1.24,2.04.54.58,1.19,1.03,1.95,1.36.76.33,1.62.49,2.57.49s1.81-.17,2.57-.49c.76-.33,1.41-.78,1.95-1.36.54-.58.95-1.26,1.24-2.04.29-.78.43-1.63.43-2.54s-.14-1.75-.43-2.54c-.29-.78-.7-1.46-1.24-2.04-.54-.58-1.19-1.03-1.95-1.36-.76-.33-1.62-.49-2.57-.49s-1.8.17-2.57-.49c-.76.33-1.41.78-1.95,1.36-.54.58-.95,1.26-1.24,2.04-.29.78-.43,1.63-.43,2.54Z"/>
      <path class="st0" d="M537.03,354.8c0,.78-.09,1.53-.27,2.25s-.48,1.35-.9,1.9c-.42.55-.97.99-1.65,1.32s-1.52.49-2.51.49-1.83-.17-2.51-.49-1.23-.77-1.65-1.32c-.42-.55-.72-1.18-.9-1.9-.18-.72-.27-1.46-.27-2.25v-9.01h1.36v8.66c0,.52.05,1.08.15,1.67.1.59.28,1.14.57,1.65.28.51.68.93,1.2,1.26.52.33,1.2.49,2.05.49s1.54-.17,2.05-.49c.52-.33.92-.75,1.2-1.26.28-.51.47-1.06.57-1.65.1-.59.14-1.15.14-1.67v-8.66h1.36v9.01Z"/>
    </g>
  </g>
  <polygon class="st0" points="-616.86 -1358.42 -616.86 -278.42 1303.14 -278.42 1303.14 -492.34 1303.14 -1358.42 -616.86 -1358.42"/>
</svg>
