<svg xmlns="http://www.w3.org/2000/svg" viewBox="235 635 120 120" width="100%" height="100%">
  <path fill="#207e88" d="M341.19,721.4c-4.61,8.14-10.92,14.44-18.93,18.93-8.01,4.48-16.81,6.72-26.42,6.72s-18.58-2.24-26.52-6.72c-7.94-4.48-14.22-10.79-18.83-18.93-4.61-8.13-6.92-17.32-6.92-27.57s2.31-19.44,6.92-27.57c4.61-8.13,10.89-14.48,18.83-19.02,7.94-4.55,16.78-6.82,26.52-6.82s18.41,2.28,26.42,6.82c8,4.55,14.32,10.89,18.93,19.02,4.61,8.14,6.92,17.33,6.92,27.57s-2.31,19.44-6.92,27.57ZM321.11,677.02c-2.63-4.93-6.15-8.74-10.57-11.43-4.42-2.69-9.32-4.04-14.7-4.04s-10.28,1.35-14.7,4.04c-4.42,2.69-7.94,6.5-10.57,11.43-2.63,4.93-3.94,10.54-3.94,16.81s1.31,11.85,3.94,16.72c2.62,4.87,6.15,8.65,10.57,11.34,4.42,2.69,9.32,4.03,14.7,4.03s10.28-1.35,14.7-4.03c4.42-2.69,7.94-6.47,10.57-11.34,2.62-4.87,3.94-10.44,3.94-16.72s-1.31-11.88-3.94-16.81Z"/>
</svg>
